<svg width="67" height="67" viewBox="0 0 67 67" fill="none" xmlns="http://www.w3.org/2000/svg">
<path d="M55.91 30.4017H61.4381C61.4381 16.2222 50.733 5.52808 36.5341 5.52808V11.0562C47.7616 11.0562 55.91 19.1907 55.91 30.4017Z" fill="white"/>
<path d="M36.5618 22.1123C42.3745 22.1123 44.8539 24.5917 44.8539 30.4045H50.382C50.382 21.4904 45.4758 16.5843 36.5618 16.5843V22.1123ZM46.0203 37.157C45.4892 36.6743 44.7913 36.4169 44.0739 36.439C43.3565 36.4612 42.6758 36.7613 42.1755 37.2759L35.5612 44.0782C33.9691 43.7742 30.7683 42.7764 27.4736 39.4899C24.1788 36.1924 23.181 32.9833 22.8853 31.4023L29.6821 24.7852C30.1973 24.2852 30.4978 23.6044 30.52 22.8869C30.5422 22.1693 30.2843 21.4712 29.8009 20.9404L19.5878 9.71008C19.1042 9.1776 18.4321 8.85462 17.7142 8.80972C16.9963 8.76482 16.2891 9.00154 15.743 9.46961L9.745 14.6135C9.26712 15.0931 8.9819 15.7314 8.94342 16.4074C8.90196 17.0984 8.11145 33.467 20.8039 46.1651C31.8767 57.2351 45.7467 58.0449 49.5666 58.0449C50.1249 58.0449 50.4677 58.0284 50.5589 58.0228C51.2347 57.985 51.8727 57.6985 52.35 57.2185L57.4911 51.2177C57.9595 50.6719 58.1967 49.965 58.1523 49.2471C58.1079 48.5292 57.7855 47.8569 57.2534 47.373L46.0203 37.157V37.157Z" fill="white"/>
</svg>
