<svg width="76" height="77" viewBox="0 0 76 77" fill="none" xmlns="http://www.w3.org/2000/svg">
<path d="M38 4.8125C31.0738 4.82078 24.4335 7.6121 19.5359 12.5742C14.6383 17.5362 11.8832 24.2638 11.875 31.2812C11.8667 37.0159 13.7156 42.5949 17.138 47.1625C17.138 47.1625 17.8505 48.113 17.9669 48.2501L38 72.1875L58.0427 48.2381C58.1472 48.1106 58.862 47.1625 58.862 47.1625L58.8644 47.1553C62.2851 42.5897 64.1331 37.0133 64.125 31.2812C64.1169 24.2638 61.3618 17.5362 56.4642 12.5742C51.5665 7.6121 44.9263 4.82078 38 4.8125V4.8125ZM38 40.9062C36.1211 40.9062 34.2844 40.3418 32.7221 39.2841C31.1598 38.2265 29.9422 36.7233 29.2232 34.9646C28.5041 33.2058 28.316 31.2706 28.6826 29.4035C29.0491 27.5364 29.9539 25.8214 31.2825 24.4753C32.6111 23.1293 34.3038 22.2126 36.1467 21.8412C37.9895 21.4698 39.8996 21.6604 41.6355 22.3889C43.3714 23.1174 44.8551 24.3511 45.899 25.9339C46.9429 27.5167 47.5 29.3776 47.5 31.2812C47.4969 33.833 46.495 36.2793 44.7141 38.0836C42.9332 39.888 40.5186 40.9031 38 40.9062V40.9062Z" fill="white"/>
</svg>
