<svg width="191" height="27" viewBox="0 0 191 27" fill="none" xmlns="http://www.w3.org/2000/svg">
<path d="M5.39733 26V6.65067H0.405333V0.997334H17.6V6.65067H12.608V26H5.39733ZM26.7532 26H19.6918V0.997334H26.7532V10.896H32.2358V0.997334H39.2972V26H32.2358V15.8027H26.7532V26ZM42.3933 26V0.997334H49.668V26H42.3933ZM59.5633 26H52.7793V3.00267L51.734 0.997334H59.5847L63.51 9.104L67.2647 17.1893L66.2193 7.696V0.997334H73.0247V26H66.518L61.4407 16.1227L58.3047 9.936L59.5633 18.128V26ZM88.2003 26C88.0297 25.7867 87.6599 24.9547 87.091 23.504C86.5363 22.0391 85.8821 20.3893 85.1283 18.5547C84.3888 16.7058 83.7346 15.3049 83.1657 14.352V26H76.1043V0.997334H83.1657V12.9653L88.4777 0.997334H95.5817L89.2243 12.7307C89.6368 13.0151 90.1843 13.7902 90.867 15.056C91.5497 16.3218 92.1897 17.6516 92.787 19.0453C93.3843 20.4391 94.003 21.84 94.643 23.248C95.283 24.6418 95.7523 25.5591 96.051 26H88.2003ZM97.4308 26V0.997334H104.705V26H97.4308ZM114.601 26H107.817V3.00267L106.771 0.997334H114.622L118.547 9.104L122.302 17.1893L121.257 7.696V0.997334H128.062V26H121.555L116.478 16.1227L113.342 9.936L114.601 18.128V26ZM146.374 23.7387C144.568 25.5449 142.42 26.448 139.931 26.448C138.168 26.448 136.639 26.1422 135.344 25.5307C134.064 24.9191 133.048 24.0373 132.294 22.8853C131.54 21.7333 130.985 20.4178 130.63 18.9387C130.288 17.4596 130.118 15.7742 130.118 13.8827C130.118 12.4747 130.189 11.2089 130.331 10.0853C130.488 8.96178 130.736 7.888 131.078 6.864C131.419 5.84 131.888 4.95822 132.486 4.21867C133.083 3.46489 133.816 2.81067 134.683 2.256C135.551 1.70133 136.603 1.28889 137.84 1.01867C139.078 0.734223 140.486 0.592001 142.064 0.592001C142.776 0.592001 143.451 0.634668 144.091 0.720001C144.745 0.805333 145.3 0.912 145.755 1.04C146.21 1.15378 146.637 1.30311 147.035 1.488C147.448 1.65867 147.768 1.81511 147.995 1.95733C148.237 2.08533 148.457 2.22756 148.656 2.384C148.856 2.54045 148.976 2.64711 149.019 2.704C149.076 2.76089 149.119 2.80356 149.147 2.832L148.827 7.73867H144.944L143.728 4.90133C143.416 4.73067 142.911 4.64533 142.214 4.64533C141.645 4.64533 141.176 4.69511 140.806 4.79467C140.436 4.89422 140.066 5.10756 139.696 5.43467C139.341 5.74756 139.056 6.20978 138.843 6.82133C138.644 7.41867 138.48 8.23644 138.352 9.27467C138.224 10.2987 138.16 11.5502 138.16 13.0293C138.16 16.1156 138.324 18.4053 138.651 19.8987C138.992 21.392 139.668 22.1387 140.678 22.1387C141.176 22.1387 141.595 22.096 141.936 22.0107C142.278 21.9111 142.598 21.7404 142.896 21.4987C143.195 21.2427 143.416 20.8729 143.558 20.3893C143.7 19.8916 143.771 19.2587 143.771 18.4907V16.3147L140.955 15.6747V11.3227H150.448L150.427 26H146.63L146.374 23.7387Z" fill="white"/>
<path d="M173.809 26L172.849 22.0107H166.79L165.979 26H159.707L166.214 2.72533L165.702 0.997334H174.513L181.638 26H173.809ZM169.542 8.336L167.665 17.6587H171.803L169.542 8.336ZM182.743 26V0.997334H190.018V26H182.743Z" fill="#A8E726"/>
</svg>
